<svg id="Layer_1" data-name="Layer 1" xmlns="http://www.w3.org/2000/svg" viewBox="0 0 120.9 141.17"><defs><style>.cls-1{fill:#fff;}.cls-2{fill:#536972;}</style></defs><rect class="cls-1" x="1.36" y="1.26" width="117.96" height="138.45"/><path class="cls-2" d="M99.1,128.56h-.87v4.56h.69c1.37,0,1.85-.38,1.85-2.28C100.77,129.1,100.37,128.56,99.1,128.56Z" transform="translate(0 0)"/><polygon class="cls-2" points="66.28 131.63 67.94 131.63 67.12 128.64 66.28 131.63"/><polygon class="cls-2" points="81.6 131.63 83.26 131.63 82.44 128.64 81.6 131.63"/><path class="cls-2" d="M0,120.13v21H120.9v-21Zm24.06,14.44H22.57l-2.73-4.34v4.34H18.35v-7.41h1.33l2.89,4.57v-4.57h1.49Zm7.6,0H27v-7.41h4.57v1.46h-3V130h2.12v1.44H28.52v1.67h3.14Zm9.76,0H39.7l-1.25-4.7-1.35,4.7H35.38l-1.87-7.41h1.62l1.2,5.24,1.36-5.24h1.6l1.33,5.24,1.28-5.24h1.54Zm13.25,0H49.11v-1.09l3.24-4.86H49.22v-1.46H54.3v1.11l-3.18,4.84h3.55Zm7.23,0H57.22v-7.41H61.8v1.46h-3V130h2.11v1.44H58.77v1.67H61.9Zm6.81,0-.48-1.6H66l-.48,1.6H63.93l2.37-7.43h1.77l2.29,7.43Zm8.73,0H72.73v-7.41h1.53v6h3.18Zm6.59,0-.48-1.6H81.3l-.48,1.6H79.25l2.37-7.43h1.77l2.29,7.43Zm9.73,0H92.28l-2.73-4.34v4.34h-1.5v-7.41h1.34l2.89,4.57v-4.57h1.48Zm5.37,0H96.68v-7.41h2.44c2.26,0,3.22,1,3.22,3.68S101.43,134.57,99.13,134.57Z" transform="translate(0 0)"/><polygon points="31.75 81.89 32.85 81.89 32.3 78.95 31.75 81.89"/><path d="M28.58,58.16,20,96.33h6.88l1.23-6.44h8.4l1.24,6.44H44.9L36.31,58.16ZM29.25,84l3-16.08h.1l3,16.08Z" transform="translate(0 0)"/><polygon points="65.42 89.89 58.26 89.89 58.26 58.16 51.1 58.16 51.1 90.37 57.06 96.33 66.61 96.33 72.57 90.37 72.57 58.16 65.42 58.16 65.42 89.89"/><polygon points="79.44 64.61 86.6 64.61 86.6 96.33 93.76 96.33 93.76 64.61 100.91 64.61 100.91 58.16 79.44 58.16 79.44 64.61"/><path d="M0,0V120.13H120.9V0ZM46.52,97.63a2,2,0,0,1-1.62.78H37.74a2.07,2.07,0,0,1-2-1.68L34.78,92h-5l-.91,4.75a2.08,2.08,0,0,1-2.05,1.68H20a2.07,2.07,0,0,1-2-2.53l8.59-38.17a2.07,2.07,0,0,1,2-1.63h7.73a2.08,2.08,0,0,1,2,1.63l8.59,38.17A2.08,2.08,0,0,1,46.52,97.63Zm28.13-7.26A2.06,2.06,0,0,1,74,91.83l-6,6a2,2,0,0,1-1.47.61H57.06a2.1,2.1,0,0,1-1.47-.61l-6-6A2.06,2.06,0,0,1,49,90.37V58.16a2.08,2.08,0,0,1,2.08-2.08h7.15a2.08,2.08,0,0,1,2.09,2.08V87.81h3V58.16a2.08,2.08,0,0,1,2.08-2.08h7.15a2.08,2.08,0,0,1,2.08,2.08ZM103,64.6a2.08,2.08,0,0,1-2.08,2.08H95.84V96.33a2.08,2.08,0,0,1-2.08,2.08H86.6a2.08,2.08,0,0,1-2.08-2.08V66.68H79.44a2.08,2.08,0,0,1-2.08-2.08V58.16a2.08,2.08,0,0,1,2.08-2.08h21.47A2.08,2.08,0,0,1,103,58.16Z" transform="translate(0 0)"/></svg>